<?xml version="1.0" encoding="UTF-8"?> <svg xmlns="http://www.w3.org/2000/svg" id="Logo_Binnenvaart_Inside" version="1.1" viewBox="0 0 790.8 793.6"><!-- Generator: Adobe Illustrator 29.0.0, SVG Export Plug-In . SVG Version: 2.1.0 Build 186) --><defs><style> .st0, .st1 { isolation: isolate; } .st1 { opacity: .3; } .st1, .st2 { fill: #6095b9; } .st3 { fill: #fff; } .st4 { stroke-width: 6px; } .st4, .st5 { stroke: #1c2443; stroke-miterlimit: 10; } .st4, .st5, .st6 { fill: #1c2443; } .st5 { stroke-width: 10px; } .st7 { fill: #2d4d63; } </style></defs><g><path class="st1" d="M628.9,114.2c16.7,0,33.2,1,49.4,3.1C606.4,44.8,506.8,0,396.6,0,190.1,0,20.5,157.7,1.6,359.3h260.6c59.6-143.8,201.3-245,366.7-245h0Z"></path><path class="st7" d="M604.1,410h-171.7v-31.8h171.7v31.8ZM425.2,378.2h-56.3v31.8h56.3v-31.8ZM361.7,378.2v31.8h-56.3v-31.8h56.3ZM298.2,378.2v31.8h-72.4v-31.8h72.4Z"></path><path class="st6" d="M732.2,268.9l-111.3,65h-69.7v40.3c-20.8,2.3-34.2,3.8-34.2,3.8-55.5,19.5-87.2,32-87.2,32h-25.7c0,0,0-.2-.2-.3h-103.2l-44.8-24.8h-88.7v-25.6h58.6v-41.1l16.9-40.4H66.5l3.1,81.5h51.9v25.6h-58.7v-6.6H12.2v6.7H.2c0,4-.2,8.1-.2,12.1,0,32,3.8,63.1,10.9,92.8,35.5-10.1,89.9-4.2,123.1,13.7h0c11.9,6.4,21.4,15.6,32.4,23.4,29.7,20.9,65.6,26.8,100.5,16.6,1.8-.5,3.5-1.1,5.3-1.7,1.8-.6,3.6-1.2,5.3-1.9,1.8-.7,3.5-1.4,5.2-2.2s3.4-1.6,5.1-2.4c1.6-.8,3.3-1.7,4.9-2.6,1.6-.9,3.2-1.8,4.8-2.8,1.6-1,3.2-2,4.7-3.1s3-2.2,4.5-3.3c7-5.3,13.7-11.1,21.2-15.7,16-9.8,34-15.7,52.5-17.8v3h47.3c10.9,2.6,21.5,6.6,31.4,12,6,3.2,12.1,6.9,17.5,11,6.5,4.9,49.2-17.4,56-12.9,26.9,17.9,65.9,21.2,96.4,12,16.9-5-7.1,13,6.6,2.5,16-12.3,27-20.4,40.8-24.6h50.5c15.4,0,26.1-27.4,26.1-27.4,0,0,42.3-90.6,37.4-114.8h0c-.2-1.2-41.4,2.6-91.7,7.7v-24.7h-66l111.3-65M619.8,366.9c-18.2,1.9-35.6,3.8-50.7,5.5v-21.4h0c0,0,50.7,0,50.7,0v16ZM681.4,360.4c-16.7,1.7-33.9,3.5-50.7,5.3v-14.8h50.7v9.5Z"></path><path class="st2" d="M681.4,350.9v9.5h0c-16.7,1.7-33.9,3.5-50.7,5.3v-14.8h50.7ZM619.8,350.8v16c-18.2,2-35.6,3.9-50.7,5.5v-21.4h50.7Z"></path><path class="st3" d="M778.2,363.1c-2.4,0-45.2,4.8-96.7,10.4l-50.8,5.6c-57.7,6.3-113.8,11.6-113.8,11.6l-55.4,20.9s310.8-29.3,312.7-29.3,6.4-19.2,4-19.2ZM714.2,382.3c-1.7,0-3.1-1.4-3.1-3.1s1.4-3.1,3.1-3.1,3.1,1.4,3.1,3.1-1.4,3.1-3.1,3.1ZM736.7,379.8c-1.7,0-3.1-1.4-3.1-3.1s1.4-3.1,3.1-3.1,3.1,1.4,3.1,3.1-1.4,3.1-3.1,3.1ZM759.1,377.3c-1.7,0-3.1-1.4-3.1-3.1s1.4-3.1,3.1-3.1,3.1,1.4,3.1,3.1-1.4,3.1-3.1,3.1Z"></path><path class="st3" d="M160,291.8v25.1c-36.8,0-79.9,0-79.9,0l-1.6-25.2h81.5ZM167,291.8v25.1c8.3,0,16,0,22.7,0v-25h-22.7ZM211.2,316.5l9.9-24.7h-24.4v25c9,0,14.7-.2,14.6-.3h0Z"></path></g><g><path class="st7" d="M488.7,596.6c-29.5,7.5-62.3,15.6-91.2,24.2-51.9,15.5-109.6,18.7-164.8,16.9-50-1.7-94.3-10-140.2-24.8-12.1-3.9-24.1-8.1-36.3-11.9,69.4,115.4,195.8,192.6,340.3,192.6s280.9-83.5,348.3-206.6c-13.5-2.8-27.1-5.1-42.3-7.3-63.7-9.4-152.6,1.5-213.9,17h0Z"></path><path class="st2" d="M253.1,609.3c37.8,0,76.2-2.3,112.7-10,29.9-6.3,51.1-10,79.6-18.9,52.8-16.6,113.5-33.6,170.3-32.9,52.3,1.2,94.7,6,140.3,17.6,14.7-31.2,25.4-64.6,31.5-99.6-13.2-4.3-26.5-8.5-40.2-12-8.4-2.2-17-4.1-25.6-5.9-8.7-1.8-17.3-3.3-26.1-4.6-8.7-1.3-17.6-2.4-26.4-3.3-8.8-.8-17.7-1.5-26.6-2-53.2-2.8-107.5.6-158.4,13-26.3,6.4-50.8,16.1-76.3,24.2-47.1,14.9-95,19.1-145.4,19.1s-88.3-2.5-130.5-11.9c-29.8-6.6-57.2-17.3-85.9-26.1-13-4-27.8-7.6-43.3-10.5,5.2,42.3,17.1,82.6,34.5,119.8,8.4,2.4,16.6,4.9,24.6,7.5,72.2,23.5,108.8,36.7,191.2,36.5h0Z"></path></g><g id="tekst" class="st0"><g class="st0"><path class="st2" d="M283.6,226.7h17.1v87.6h-17.1v-87.6Z"></path><path class="st2" d="M317.6,251.5h11.4l1.4,4.6c5.4-3.8,12.1-6,19-6,14.8,0,20.9,9.5,20.9,21.8v42.4h-16v-40.4c0-6.1-2.4-9.7-9.1-9.7s-8.6,1.5-11.6,3v47.1h-16v-62.8h0Z"></path><path class="st2" d="M384.3,299.6c5.2,1,12.2,1.9,18,1.9s11.2-1.4,11.2-5-5.3-4.6-14.3-7.8c-10.5-3.7-17.1-8.4-17.1-18.9s9.5-19.7,26.5-19.7,12.4.8,17.8,1.9l-1.9,13.9c-4.8-.8-11.2-1.6-16-1.6s-10.1,1.6-10.1,4.6,6.1,4.6,14.1,7.6c11,4.1,17.3,8.7,17.3,19.2s-8.6,20-27.9,20-14-.8-19.6-2l2-14h0Z"></path><path class="st2" d="M441.4,226.7h16v15.2h-16v-15.2ZM441.4,251.5h16v62.8h-16v-62.8Z"></path><path class="st2" d="M470.5,283.5c0-22.2,9.7-33.3,27.1-33.3s7.6.5,10.7,1.1v-24.5h16v87.6h-11.6l-1.6-4.2c-4.1,3.3-8.8,5.6-16,5.6-15.2,0-24.6-10.3-24.6-32.2h0ZM508.3,299v-34.1c-2.7-.5-6-1-8.7-1-9.7,0-12.8,5.4-12.8,19.3s2.9,18.6,11,18.6,7.8-1.2,10.5-2.9h0Z"></path><path class="st2" d="M564.3,250.1c16.2,0,25.3,9.9,25.3,27.9s-.3,7.6-1,10.7h-35.2c1,8.8,5.3,12.8,13.6,12.8s12.5-1.9,17.3-3.5l4.5,13.1c-6.5,2.7-14.1,4.6-22.3,4.6-19.2,0-29.5-10.6-29.5-32.5s9.7-33,27.3-33h0ZM573.7,276.3c-.3-7.9-3.3-12-9.8-12s-9.8,4.6-10.5,12h20.3Z"></path></g><g class="st0"><path class="st6" d="M68,117.4c8.3-1.2,19.6-2.3,27.5-2.3,19.9,0,33.3,6.8,33.3,23.8s-5,16-12.4,18.8v.5c9.9,3.1,14.4,9.7,14.4,20.9,0,19.2-13.2,26.2-35.2,26.2s-19.2-.8-27.6-2v-86h0ZM98.2,152.5c8.6,0,13.2-2.9,13.2-11.2s-6.3-11.3-16-11.3-6.3.1-10.2.5v21.9h13.1-.1ZM95.9,190.5c10.7,0,17.5-1.9,17.5-12.2s-5.2-12.2-14.6-12.2h-13.7v23.9c4.2.4,7.9.5,10.7.5h.1Z"></path><path class="st6" d="M145,116.4h16v15.2h-16v-15.2ZM145,141.2h16v62.8h-16v-62.8Z"></path><path class="st6" d="M177.9,141.2h11.4l1.4,4.6c5.4-3.8,12.1-6,19-6,14.8,0,20.9,9.5,20.9,21.8v42.4h-16v-40.4c0-6.1-2.4-9.7-9.1-9.7s-8.6,1.5-11.6,3v47.1h-16v-62.8h0Z"></path><path class="st6" d="M246.8,141.2h11.4l1.4,4.6c5.4-3.8,12.1-6,19-6,14.8,0,20.9,9.5,20.9,21.8v42.4h-16v-40.4c0-6.1-2.4-9.7-9.1-9.7s-8.6,1.5-11.6,3v47.1h-16v-62.8h0Z"></path><path class="st6" d="M338.9,139.8c16.2,0,25.3,9.9,25.3,27.9s-.3,7.6-1,10.7h-35.2c1,8.8,5.3,12.8,13.6,12.8s12.5-1.9,17.3-3.5l4.5,13.1c-6.5,2.7-14.1,4.6-22.3,4.6-19.2,0-29.5-10.6-29.5-32.5s9.7-33,27.3-33h0ZM348.3,165.9c-.3-7.9-3.3-12-9.8-12s-9.8,4.6-10.5,12h20.3Z"></path><path class="st6" d="M377.1,141.2h11.4l1.4,4.6c5.4-3.8,12.1-6,19-6,14.8,0,20.9,9.5,20.9,21.8v42.4h-16v-40.4c0-6.1-2.4-9.7-9.1-9.7s-8.6,1.5-11.6,3v47.1h-16v-62.8h0Z"></path><path class="st6" d="M439.7,141.2h16c3.8,15.9,8.7,34.3,13.5,48.4h.5c4.8-14.1,9.7-32.5,13.3-48.4h15.8c-4.9,20.5-13.2,49.1-19,62.8h-21.1c-5.8-13.7-14.1-42.3-19-62.8Z"></path><path class="st6" d="M532.8,165.5c3.4,0,6.1.3,9.4.7v-2.2c0-7.1-2.9-10.1-11.3-10.1s-12.4,1.1-17.3,2.2l-2.6-13.6c5.8-1.2,13.5-2.7,21.2-2.7,16.7,0,26,7.2,26,22.3v41.9h-11.4l-1.6-4.8c-3.5,2.9-9.5,6.1-17.4,6.1-11.7,0-21.5-6.9-21.5-19.9s9.4-20,26.5-20h0ZM531.2,192.4c4.4,0,8.6-1.9,11-3.7v-11.3c-2.9-.3-6.7-.5-8.8-.5-6.8,0-10.7,2.6-10.7,7.9s3.4,7.6,8.6,7.6h0Z"></path><path class="st6" d="M597,165.5c3.4,0,6.1.3,9.4.7v-2.2c0-7.1-2.9-10.1-11.3-10.1s-12.4,1.1-17.3,2.2l-2.6-13.6c5.8-1.2,13.5-2.7,21.2-2.7,16.7,0,26,7.2,26,22.3v41.9h-11.4l-1.6-4.8c-3.5,2.9-9.5,6.1-17.4,6.1-11.7,0-21.5-6.9-21.5-19.9s9.4-20,26.5-20h0ZM595.4,192.4c4.4,0,8.6-1.9,11-3.7v-11.3c-2.9-.3-6.7-.5-8.8-.5-6.8,0-10.7,2.6-10.7,7.9s3.4,7.6,8.6,7.6h0Z"></path><path class="st6" d="M638.8,141.2h11.4l1.8,7.1c5.2-5.7,11-8.4,18-8.4s5.2.3,7.3.7l-1.1,14.7c-2.7-.4-4.9-.5-6.8-.5-6.8,0-11,1.8-14.6,5.2v44.2h-16v-63Z"></path><path class="st6" d="M691,154.5h-9.5v-12l10.2-.5,1.1-18.2h14.3v17.4h15.6v13.3h-15.6v30.9c0,4.5,1.5,5.8,5,5.8s6.4-.8,9.1-1.8l3.4,12.8c-4.1,1.6-9.5,3-15.2,3-10.9,0-18.4-5.7-18.4-18.9v-31.8h0Z"></path></g></g><line class="st4" x1="712.3" y1="263.7" x2="766.2" y2="263.7"></line><line class="st5" x1="743.1" y1="347.2" x2="743.1" y2="359.6"></line><line class="st5" x1="729.2" y1="347.2" x2="729.2" y2="359.6"></line><line class="st5" x1="714.6" y1="347.2" x2="714.6" y2="362.3"></line></svg> 